<svg width="1268" height="135" viewBox="0 0 1268 135" fill="none" xmlns="http://www.w3.org/2000/svg">
<path d="M411 85.7495V132.5H394.25V85.7495H411Z" fill="#0F3D3E" stroke="white" stroke-width="3.5"/>
<path d="M886.5 81.2495V128H869.75V81.2495H886.5Z" fill="#0F3D3E" stroke="white" stroke-width="3.5"/>
<circle cx="426.625" cy="105.375" r="7.625" fill="#0F3D3E" stroke="white" stroke-width="3.5"/>
<circle cx="902.125" cy="100.875" r="7.625" fill="#0F3D3E" stroke="white" stroke-width="3.5"/>
<circle cx="378.625" cy="105.375" r="7.625" fill="#0F3D3E" stroke="white" stroke-width="3.5"/>
<circle cx="854.125" cy="100.875" r="7.625" fill="#0F3D3E" stroke="white" stroke-width="3.5"/>
<path d="M351.25 22.4995H328.75V132H351.25V75.7495C351.85 69.7495 355.75 67.4995 361 67.4995H386.5C390.927 67.4995 392.25 73.2495 392.5 76.4995H412.75C412.15 57.8995 406 51.7495 399.25 51.7495H361.75C353.5 51.7495 352 54.2495 351.25 57.7495V22.4995Z" fill="white" stroke="white" stroke-width="1.5"/>
<path d="M826.75 17.9995H804.25V127.5H826.75V71.2495C827.35 65.2495 831.25 62.9995 836.5 62.9995H862C866.427 62.9995 867.75 68.7495 868 71.9995H888.25C887.65 53.3995 881.5 47.2495 874.75 47.2495H837.25C829 47.2495 827.5 49.7495 826.75 53.2495V17.9995Z" fill="white" stroke="white" stroke-width="1.5"/>
<path d="M283.75 88.4995H264.25V117C264.25 132 275.5 129.75 303.25 129.75V111.75C292.75 111.75 283.75 114 283.75 106.5V88.4995Z" fill="white" stroke="white" stroke-width="1.5"/>
<path d="M759.25 83.9995H739.75V117.75C739.75 132.75 751 129 778.75 129V112.5C768.25 112.5 759.25 114.75 759.25 107.25V83.9995Z" fill="white" stroke="white" stroke-width="1.5"/>
<path d="M282 24.2495V46.7495H302.25V59.7495H282V80.7495H266V59.7495H246.5V46.7495H266V24.2495H282Z" fill="#0F3D3E" stroke="white" stroke-width="3.5"/>
<path d="M757.5 19.7495V42.2495H777.75V55.2495H757.5V76.2495H741.5V55.2495H722V42.2495H741.5V19.7495H757.5Z" fill="#0F3D3E" stroke="white" stroke-width="3.5"/>
<path d="M183.75 49.7495V63.4995H136.25V49.7495H183.75Z" fill="#0F3D3E" stroke="white" stroke-width="3.5"/>
<path d="M127.045 91.2437C128.314 87.7535 130.816 85.2022 133.381 83.438C135.944 81.6758 138.619 80.6642 140.331 80.269L140.415 80.2495H196V68.2495C196 67.5078 195.486 66.9506 194.496 66.5435C193.522 66.1425 192.314 65.9995 191.5 65.9995H190.75V47.2495H205.824L205.897 47.2642C207.563 47.5974 209.144 48.5153 210.59 49.7231C212.04 50.9344 213.392 52.4695 214.602 54.0962C217.02 57.3478 218.923 61.0402 219.941 63.4585L220 63.5981V129.75H208.439L208.22 129.53C206.71 128.02 203.522 124.609 201.484 121.719C200.568 123.903 198.887 125.6 197.107 126.856C194.922 128.398 192.509 129.333 190.932 129.727L190.843 129.75H138.975L138.95 129.748C134.289 129.437 131.286 127.808 129.448 125.814C127.627 123.837 127 121.553 127 120V91.3677L127.045 91.2437ZM137.5 110.25C137.5 112.321 139.179 114 141.25 114H186.25C188.321 114 190 112.321 190 110.25V98.9995C190 96.9285 188.321 95.2495 186.25 95.2495H141.25C139.179 95.2495 137.5 96.9285 137.5 98.9995V110.25Z" fill="white"/>
<path d="M1 29.9995V129.75H19V53.9995L28.75 65.2495L39.25 53.9995L19 29.9995H1Z" fill="white" stroke="white" stroke-width="1.5"/>
<path d="M110.5 29.9995V129.75H92.5V53.9995L82.75 65.2495L72.25 53.9995L92.5 29.9995H110.5Z" fill="white" stroke="white" stroke-width="1.5"/>
<path d="M75.8418 70.5659L64.1963 83.5825L63.125 84.7798L64.2256 85.9487L75.0615 97.4624L67.7129 104.811L56.1992 93.9751L54.9629 92.812L43 104.775L35.623 97.3979L46.5889 84.3765L47.5928 83.1851L46.5244 82.0503L35.6445 70.4907L43.0078 62.561L53.7256 73.9487L54.9619 75.2622L67.75 62.4741L75.8418 70.5659Z" fill="#0F3D3E" stroke="white" stroke-width="3.5"/>
<path d="M490.472 13.2233C493.402 9.66332 497.072 8.52396 500.454 7.6305C503.595 6.80087 508.946 6.54684 513.734 8.20237C518.075 9.70351 521.884 12.7311 523.299 18.3911C519.053 20.0494 516.042 21.2087 514.305 21.8705C513.509 20.5307 512.408 18.9962 511.092 17.7331C509.339 16.0517 506.74 14.4291 503.794 15.3152C501.905 15.8838 500.595 17.3281 499.681 19.2842C498.781 21.2075 498.174 23.8028 497.741 27.0595C496.873 33.587 496.64 43.3463 496.594 57.0671C496.57 63.9686 496.93 71.4505 497.109 78.7391C497.289 86.0743 497.291 93.2729 496.573 99.8095C495.129 112.97 490.875 122.736 480.148 125.964C471.494 128.568 465.514 127.331 461.588 125.094C458.286 123.213 456.324 120.562 455.413 118.606L463.645 112.591C464.975 113.932 466.74 115.534 468.735 116.76C471.301 118.337 474.615 119.512 477.964 118.178C479.717 117.48 480.87 115.776 481.679 113.911C482.516 111.98 483.15 109.487 483.641 106.632C484.625 100.909 485.093 93.3776 485.29 85.1499C485.683 68.7425 485.002 49.0143 485.056 34.9015C485.102 23.1257 487.525 16.804 490.472 13.2233Z" fill="#0F3D3E" stroke="white" stroke-width="3.5"/>
<path d="M507.25 61.4995V80.9995H512.5L508.75 86.2495L547.75 61.4995V51.7495V41.9995L507.25 61.4995Z" fill="white" stroke="white" stroke-width="3"/>
<path d="M507.25 100.5V80.9995L514 84.7495L577.75 113.625V123V132.375L507.25 100.5Z" fill="white" stroke="white" stroke-width="3"/>
<path d="M658.5 48.9995V62.7495H611V48.9995H658.5Z" fill="#0F3D3E" stroke="white" stroke-width="3.5"/>
<path d="M601.795 90.4937C603.064 87.0035 605.566 84.4522 608.131 82.688C610.694 80.9258 613.369 79.9142 615.081 79.519L615.165 79.4995H670.75V67.4995C670.75 66.7578 670.236 66.2006 669.246 65.7935C668.272 65.3925 667.064 65.2495 666.25 65.2495H665.5V46.4995H680.574L680.647 46.5142C682.313 46.8474 683.894 47.7653 685.34 48.9731C686.79 50.1844 688.142 51.7195 689.352 53.3462C691.77 56.5978 693.673 60.2902 694.691 62.7085L694.75 62.8481V129H683.189L682.97 128.78C681.46 127.27 678.272 123.859 676.234 120.969C675.318 123.153 673.637 124.85 671.857 126.106C669.672 127.648 667.259 128.583 665.682 128.977L665.593 129H613.725L613.7 128.998C609.039 128.687 606.036 127.058 604.198 125.064C602.377 123.087 601.75 120.803 601.75 119.25V90.6177L601.795 90.4937ZM612.25 109.5C612.25 111.571 613.929 113.25 616 113.25H661C663.071 113.25 664.75 111.571 664.75 109.5V98.2495C664.75 96.1785 663.071 94.4995 661 94.4995H616C613.929 94.4995 612.25 96.1785 612.25 98.2495V109.5Z" fill="white"/>
<path d="M994.5 48.9995V62.7495H947V48.9995H994.5Z" fill="#0F3D3E" stroke="white" stroke-width="3.5"/>
<path d="M1113 50.4995V64.2495H1065.5V50.4995H1113Z" fill="#0F3D3E" stroke="white" stroke-width="3.5"/>
<path d="M1231.5 50.4995V64.2495H1184V50.4995H1231.5Z" fill="#0F3D3E" stroke="white" stroke-width="3.5"/>
<path d="M937.795 90.4937C939.064 87.0035 941.566 84.4522 944.131 82.688C946.694 80.9258 949.369 79.9142 951.081 79.519L951.165 79.4995H1006.75V67.4995C1006.75 66.7578 1006.24 66.2006 1005.25 65.7935C1004.27 65.3925 1003.06 65.2495 1002.25 65.2495H1001.5V46.4995H1016.57L1016.65 46.5142C1018.31 46.8474 1019.89 47.7653 1021.34 48.9731C1022.79 50.1844 1024.14 51.7195 1025.35 53.3462C1027.77 56.5978 1029.67 60.2902 1030.69 62.7085L1030.75 62.8481V129H1019.19L1018.97 128.78C1017.46 127.27 1014.27 123.859 1012.23 120.969C1011.32 123.153 1009.64 124.85 1007.86 126.106C1005.67 127.648 1003.26 128.583 1001.68 128.977L1001.59 129H949.725L949.7 128.998C945.039 128.687 942.036 127.058 940.198 125.064C938.377 123.087 937.75 120.803 937.75 119.25V90.6177L937.795 90.4937ZM948.25 109.5C948.25 111.571 949.929 113.25 952 113.25H997C999.071 113.25 1000.75 111.571 1000.75 109.5V98.2495C1000.75 96.1785 999.071 94.4995 997 94.4995H952C949.929 94.4995 948.25 96.1785 948.25 98.2495V109.5Z" fill="white"/>
<path d="M1056.29 91.9937C1057.56 88.5035 1060.07 85.9522 1062.63 84.188C1065.19 82.4258 1067.87 81.4142 1069.58 81.019L1069.67 80.9995H1125.25V68.9995C1125.25 68.2578 1124.74 67.7006 1123.75 67.2935C1122.77 66.8925 1121.56 66.7495 1120.75 66.7495H1120V47.9995H1135.07L1135.15 48.0142C1136.81 48.3474 1138.39 49.2653 1139.84 50.4731C1141.29 51.6844 1142.64 53.2195 1143.85 54.8462C1146.27 58.0978 1148.17 61.7902 1149.19 64.2085L1149.25 64.3481V130.5H1137.69L1137.47 130.28C1135.96 128.77 1132.77 125.359 1130.73 122.469C1129.82 124.653 1128.14 126.35 1126.36 127.606C1124.17 129.148 1121.76 130.083 1120.18 130.477L1120.09 130.5H1068.22L1068.2 130.498C1063.54 130.187 1060.54 128.558 1058.7 126.564C1056.88 124.587 1056.25 122.303 1056.25 120.75V92.1177L1056.29 91.9937ZM1066.75 111C1066.75 113.071 1068.43 114.75 1070.5 114.75H1115.5C1117.57 114.75 1119.25 113.071 1119.25 111V99.7495C1119.25 97.6785 1117.57 95.9995 1115.5 95.9995H1070.5C1068.43 95.9995 1066.75 97.6785 1066.75 99.7495V111Z" fill="white"/>
<path d="M1174.79 91.9937C1176.06 88.5035 1178.57 85.9522 1181.13 84.188C1183.69 82.4258 1186.37 81.4142 1188.08 81.019L1188.17 80.9995H1243.75V68.9995C1243.75 68.2578 1243.24 67.7006 1242.25 67.2935C1241.27 66.8925 1240.06 66.7495 1239.25 66.7495H1238.5V47.9995H1253.57L1253.65 48.0142C1255.31 48.3474 1256.89 49.2653 1258.34 50.4731C1259.79 51.6844 1261.14 53.2195 1262.35 54.8462C1264.77 58.0978 1266.67 61.7902 1267.69 64.2085L1267.75 64.3481V130.5H1256.19L1255.97 130.28C1254.46 128.77 1251.27 125.359 1249.23 122.469C1248.32 124.653 1246.64 126.35 1244.86 127.606C1242.67 129.148 1240.26 130.083 1238.68 130.477L1238.59 130.5H1186.72L1186.7 130.498C1182.04 130.187 1179.04 128.558 1177.2 126.564C1175.38 124.587 1174.75 122.303 1174.75 120.75V92.1177L1174.79 91.9937ZM1185.25 111C1185.25 113.071 1186.93 114.75 1189 114.75H1234C1236.07 114.75 1237.75 113.071 1237.75 111V99.7495C1237.75 97.6785 1236.07 95.9995 1234 95.9995H1189C1186.93 95.9995 1185.25 97.6785 1185.25 99.7495V111Z" fill="white"/>
</svg>
